<?xml version="1.0" encoding="utf-8"?>
<!-- Generator: Adobe Illustrator 16.0.0, SVG Export Plug-In . SVG Version: 6.00 Build 0)  -->
<!DOCTYPE svg PUBLIC "-//W3C//DTD SVG 1.1//EN" "http://www.w3.org/Graphics/SVG/1.1/DTD/svg11.dtd">
<svg version="1.1" id="レイヤー_1" xmlns="http://www.w3.org/2000/svg" xmlns:xlink="http://www.w3.org/1999/xlink" x="0px"
	 y="0px" width="100px" height="100px" viewBox="0 0 100 100" enable-background="new 0 0 100 100" xml:space="preserve">
<g>
	<g>
		<path d="M17.799,27.111c4.663,3.341-6.414,13.603-8.856,15.907c-2.35,2.216,1.192,5.746,3.535,3.535
			c5.421-5.112,17.21-17.049,7.845-23.759C17.695,20.911,15.203,25.251,17.799,27.111L17.799,27.111z"/>
	</g>
</g>
<g>
	<g>
		<path d="M29.537,39.262c4.803-0.791,9.676-1.088,14.405-2.296c3.122-0.798,1.797-5.62-1.329-4.821
			c-4.726,1.208-9.604,1.505-14.405,2.296C25.032,34.964,26.384,39.782,29.537,39.262L29.537,39.262z"/>
	</g>
</g>
<g>
	<g>
		<path d="M55.48,20.397c0.884,4.762,1.49,9.548,1.968,14.367c0.364,3.676,1.889,9.27,0.955,12.905
			c-0.802,3.125,4.021,4.451,4.822,1.329c0.988-3.854-0.26-8.462-0.603-12.355c-0.521-5.893-1.242-11.757-2.32-17.575
			C59.715,15.901,54.896,17.246,55.48,20.397L55.48,20.397z"/>
	</g>
</g>
<g>
	<g>
		<path d="M62.105,38.845c4.294-1.514,8.932-1.587,13.152-3.34c2.933-1.218,1.647-6.058-1.33-4.821
			c-4.22,1.753-8.857,1.826-13.152,3.34C57.757,35.088,59.057,39.92,62.105,38.845L62.105,38.845z"/>
	</g>
</g>
<g>
	<g>
		<path d="M87.531,25.37c0.049,1.161-0.857,0.458,0.933,0.744c0.948,0.151,1.873,0.49,2.736,0.897
			c1.934,0.912,3.771,2.546,1.957,4.59c-1.396,1.572-3.369,2.445-4.652,4.155c-1.901,2.531-1.267,5.255-1.918,8.156
			c-0.704,3.141,4.116,4.475,4.822,1.329c0.511-2.277-0.132-5.244,1.561-7.022c1.296-1.362,2.982-2.248,4.243-3.667
			c2.567-2.893,2.073-6.563-0.177-9.388c-2.642-3.316-14.825-7.386-14.505,0.206C82.667,28.582,87.667,28.595,87.531,25.37
			L87.531,25.37z"/>
	</g>
</g>
<g>
	<g>
		<path d="M89.739,53.383c0.033-0.233,0.301-1.021-0.036-0.229c0.031-0.067,0.067-0.133,0.108-0.195
			c-0.274,0.454-0.619,0.612-1.088,0.808c-0.536,0.042-0.678,0.061-0.427,0.058c-0.166-0.019-0.332-0.038-0.498-0.057
			c-0.446-0.212-0.559-0.254-0.338-0.125c-0.581-0.355-0.334-0.267-0.156-0.07c-0.474-0.522-0.152-0.184-0.048-0.01
			c0.698,1.167,2.235,1.591,3.42,0.896c1.166-0.683,1.598-2.25,0.896-3.42c-0.687-1.148-1.961-2.398-3.437-2.204
			c-1.135,0.149-1.905,0.583-2.583,1.518c-0.353,0.487-0.551,1.108-0.637,1.7c-0.101,0.698-0.119,1.292,0.253,1.927
			c0.327,0.559,0.869,0.978,1.493,1.149C87.853,55.455,89.543,54.733,89.739,53.383L89.739,53.383z"/>
	</g>
</g>
<g>
	<g>
		<path d="M13.224,89.532c5.958-2.953,11.093-7.749,16.627-11.433c5.374-3.577,11.008-6.741,16.42-10.264
			c6.599-4.295,12.911-4.094,20.529-3.462c7.174,0.595,15.415-0.301,22.158,2.446c-0.582-1.025-1.164-2.051-1.746-3.076
			c-1.408,3.439-4.597,5.967-6.927,8.786c-1.947,2.355-3.763,4.825-5.602,7.265c-3.55,4.709-9.179,15.98-16.062,14.213
			c-7.049-1.812-14.868-1.532-22.072-2.59c-7.772-1.141-14.869-4.24-22.462-6.038c-3.135-0.742-4.466,4.079-1.329,4.822
			c8.462,2.003,16.297,5.251,24.994,6.4c4.983,0.659,9.986,1.113,14.985,1.624c3.561,0.364,7.041,1.712,10.604,1.128
			c5.551-0.908,10.528-10.317,13.61-14.345c2.946-3.849,5.769-7.804,8.994-11.427c2.445-2.746,4.677-5.064,6.088-8.509
			c0.56-1.367-0.609-2.612-1.746-3.076c-6.273-2.555-13.22-1.779-19.836-2.304c-6.903-0.548-15.008-2.148-21.537,0.948
			c-6.427,3.048-12.516,7.434-18.56,11.19c-6.669,4.145-12.638,9.903-19.656,13.383C7.812,86.647,10.346,90.96,13.224,89.532
			L13.224,89.532z"/>
	</g>
</g>
<g>
	<g>
		<path d="M38.646,83.313c6.87,1.141,13.775,0.975,20.706,1.341c3.224,0.17,3.207-4.83,0-5c-6.468-0.342-12.966-0.098-19.377-1.163
			C36.823,77.968,35.471,82.786,38.646,83.313L38.646,83.313z"/>
	</g>
</g>
<g>
	<g>
		<path d="M49.085,75.589c6.822,1.322,16.781,6.069,23.221,1.417c2.587-1.868,0.096-6.209-2.523-4.316
			c-4.959,3.581-14.022-0.886-19.368-1.923C47.265,70.156,45.921,74.975,49.085,75.589L49.085,75.589z"/>
	</g>
</g>
<g>
	<g>
		<path d="M60.358,71.204c4.086,0.569,8.055-0.059,12.146-0.119c3.222-0.048,3.226-5.048,0-5c-3.583,0.053-7.242,0.796-10.816,0.297
			C58.536,65.942,57.177,70.76,60.358,71.204L60.358,71.204z"/>
	</g>
</g>
</svg>
